<?xml version="1.0" encoding="utf-8"?>
<!-- Generator: Adobe Illustrator 26.0.1, SVG Export Plug-In . SVG Version: 6.00 Build 0)  -->
<svg version="1.1" xmlns="http://www.w3.org/2000/svg" xmlns:xlink="http://www.w3.org/1999/xlink" x="0px" y="0px"
	 viewBox="0 0 2122 2122" style="enable-background:new 0 0 2122 2122;" xml:space="preserve">
<style type="text/css">
	.st0{fill:#F4E72D;}
</style>
<g id="DiseÒo">
</g>
<g id="texto">
	<g>
		<path class="st0" d="M1908.6,822.9l-825.7-359.8c-6.8-3-14.6-3-21.4-0.2L212.9,813.8c-10.2,4.2-16.8,14.1-17,25.1
			c-0.1,11,6.3,21,16.4,25.4L548,1011.2l0,235.9c9.3,7.7,21.1,9.5,29.7,4.6c5.6-3.1,8.3-8.2,9.4-10.9l15.8,6.3l-0.1-211.9
			c0,0,458.1,200.5,458.1,200.5c7,3.1,15,3.1,22,0l458.1-201.1v434.5c-19.8-9.4-43.9-17.5-72.3-24.8
			c-47.4-12.1-106.5-21.8-173.9-28.6c-67.4-6.7-143-10.5-223-10.5c-69.3,0-135.4,2.8-195.6,8c-45.2,3.9-87.1,9-124.8,15.3
			c-28.2,4.7-54.1,10-77.1,16c-17.3,4.5-33,9.2-47.1,14.4c-8.8,3.3-16.9,6.6-24.5,10.2l0-221.9c0-15.2-12.3-27.4-27.4-27.4
			c-15.2,0-27.4,12.3-27.4,27.4l0,263c0,3.3,0.7,6.6,1.9,9.7c-1.2,4.2-1.9,8.7-1.9,13.2c0,8.1,2.1,15.9,5.5,22.6
			c3.2,6.3,7.3,11.6,11.8,16.2c8.6,8.7,18.9,15.5,30.9,21.8c20.9,10.9,47.3,19.9,78.9,28.1c47.4,12.1,106.5,21.8,173.9,28.6
			c67.4,6.7,143,10.5,223,10.5c69.3,0,135.4-2.8,195.6-8c45.2-3.9,87.1-9,124.8-15.3c28.2-4.7,54.1-10,77.1-16
			c17.3-4.5,33-9.2,47.1-14.4c21.2-7.8,38.6-16.2,52.7-27.1c7-5.5,13.3-11.6,18.3-19.4c2.5-3.9,4.6-8.2,6.1-12.8
			c1.5-4.7,2.3-9.7,2.3-14.8c0-4.5-0.7-8.9-1.9-13.1c1.2-3.1,1.9-6.4,1.9-9.8v-499.6l143.6-63v235.8c-22.5,0.4-43,9.7-57.7,24.5
			c-15.1,15.1-24.6,36.2-24.6,59.3c0,0,20.2,224.7,27.4,224.7h160.2c7.2,0,27.4-221.2,27.4-221.2c0-24-9.8-46.1-25.6-61.8
			c-13.6-13.7-32-22.9-52.3-25.1V923.4l114.3-50.2c10-4.4,16.4-14.2,16.4-25.2C1925.1,837.1,1918.6,827.3,1908.6,822.9z
			 M1071.9,1180.6L293.5,839.9l778.2-321.8l757.5,330.1L1071.9,1180.6z M1455.5,1568.5c-43.5,11.2-100.4,20.6-165.8,27.2
			c-65.4,6.6-139.4,10.3-217.7,10.3c-67.8,0-132.4-2.8-190.9-7.8c-43.9-3.8-84.5-8.8-120.4-14.8c-26.9-4.5-51.3-9.5-72.5-15
			c-15.9-4.1-30-8.4-41.9-12.8c-17.9-6.5-31.2-13.5-38-18.9c-1.9-1.4-3.2-2.7-4.1-3.7c0.1-0.1,0.2-0.2,0.3-0.3
			c2.6-2.7,8.4-7.1,16.9-11.5c15-7.9,38.1-16.2,67.1-23.6c43.5-11.2,100.4-20.6,165.8-27.2c65.4-6.6,139.4-10.3,217.7-10.3
			c67.8,0,132.4,2.8,190.9,7.8c43.9,3.8,84.5,8.8,120.4,14.8c26.9,4.5,51.3,9.5,72.5,15c15.9,4.1,30,8.4,41.9,12.8
			c17.9,6.5,31.2,13.5,38,18.9c1.9,1.4,3.2,2.7,4.1,3.7c-0.1,0.1-0.2,0.2-0.3,0.3c-2.6,2.7-8.4,7.1-16.9,11.5
			C1507.6,1552.7,1484.5,1561.1,1455.5,1568.5z M1817.4,1436.9h-105.4V1267c0-8.1,3.2-15.2,8.5-20.5c5.3-5.3,12.4-8.5,20.5-8.5h43.8
			c9.1,0,17,3.6,23,9.5c5.9,6,9.5,13.9,9.5,23V1436.9z"/>
		<path class="st0" d="M1033.8,764.6c-10.7,2-20.8,4.8-30.2,8.3c-14,5.3-26.5,11.9-36.9,21.5c-5.2,4.8-9.8,10.5-13.3,17.3
			c-3.5,6.8-5.7,14.8-5.7,23.1c0,7.4,1.7,14.6,4.6,20.8c2.5,5.5,5.8,10.3,9.5,14.5c6.5,7.3,14.1,13,22.6,17.8
			c12.6,7.1,27.2,12.2,43.2,15.8c16,3.5,33.6,5.5,52.1,5.5c16.1,0,31.5-1.5,45.8-4.2c10.7-2,20.8-4.8,30.2-8.3
			c14-5.3,26.5-11.9,36.9-21.5c5.2-4.8,9.8-10.5,13.3-17.3c3.5-6.8,5.7-14.8,5.7-23.1c0-7.4-1.7-14.6-4.6-20.8
			c-2.5-5.5-5.8-10.3-9.5-14.5c-6.5-7.3-14.1-13-22.6-17.8c-12.6-7.1-27.2-12.2-43.2-15.8c-16-3.6-33.6-5.5-52.1-5.5
			C1063.5,760.4,1048.1,761.9,1033.8,764.6z M1155,834.5c0.1,0.1,0.1,0.1,0.1,0.1c0,0,0.1,0.1,0.1,0.1c-0.4,0.4-0.9,0.9-1.6,1.4
			c0,0-1,0.9-2.2,1.6c-12.6,8.5-26.9,12.8-26.9,12.8c-19,5.7-36.9,6-44.7,6.1c-15.6,0.2-27-1.7-35.9-3.2
			c-12.6-2.1-18.3-4.2-22.6-6.2c-9.8-4.7-16.5-11.2-17.4-12.2c-0.1-0.1-0.2-0.2-0.3-0.3c0.9-0.7,2.2-1.8,3.7-3
			c4-3.2,7.4-5.7,8.4-6.4c5.8-4.2,13-6.9,16.6-8.3c26.5-10,49.7-9.4,49.7-9.4c15,0.4,28,3.6,34.3,6c0.7,0.3,5,2,10.5,4.3
			c5,2.1,7.5,3.2,9.8,4.3C1136.8,822.3,1148.2,828,1155,834.5z"/>
	</g>
</g>
</svg>
