<?xml version="1.0" encoding="utf-8"?>
<!-- Generator: Adobe Illustrator 26.1.0, SVG Export Plug-In . SVG Version: 6.00 Build 0)  -->
<svg version="1.1" id="Layer_1" xmlns="http://www.w3.org/2000/svg" xmlns:xlink="http://www.w3.org/1999/xlink" x="0px" y="0px"
	 viewBox="0 0 410.1 190.8" style="enable-background:new 0 0 410.1 190.8;" xml:space="preserve">
<style type="text/css">
	.st0{fill-rule:evenodd;clip-rule:evenodd;fill:#FFFFFF;}
	.st1{fill:#FFFFFF;}
</style>
<g>
	<path class="st0" d="M284.9,102.1c0.9-1.3,2.4-2.9,4.6-4.9c2.1-1.9,1.8-3.2-0.9-3.7c3.5-2.9,5.1-6,4.9-9.3c0-3.2,0.2-6.5,0.7-9.7
		c2-6.7-0.2-12.8-6.6-18.1c-2.9-2.1-6.2-2.6-9.7-1.5c-3.7,1.2-7.4,2.6-11,4.2c-2.6,0.9-4.4,1.3-5.7,1.2c-1.3-0.1-3.1-0.2-5.5-0.3
		c-4.4,0.7-8.1,1.9-11.4,3.6c-3.8,0.6-7.7,0.9-11.8,1.2c-3.6,1.1-6.4,2.6-8.3,4.6c-3.3,1.1-7,2.4-11,3.8c-4,1.4-4.3,3.3-1.1,5.9
		c-0.9,0.3-1.6,0.5-2.3,0.8c-1,0.2-2.5,0.6-4.5,1.3c-0.4,1-1.8,1.8-4.1,2.4c-3.5-0.7-6.6-1.7-9.2-3c-1.8,0.1-3.4,0.6-4.7,1.5
		c-1.3,0.8-2.9,1.1-4.9,0.9c-1.3-0.5-2.6-1.3-3.7-2.6c-1.1-1.2-2.5-1.4-4.3-0.6c-0.7,0.6-1.1,1.5-1.1,2.8c0,1.3-0.5,2.4-1.4,3.2
		c-4.2,1.4-8.1,1.3-11.8-0.1c-3-1.7-4.4-3.7-4.1-6c0-1.8,0.7-2.9,2.1-3.2c1.3-0.2,3-0.9,5.1-2.1c-0.7-1.1,0-1.9,2-2.5
		c2-0.6,3.7-1,5.2-1.2c3.1-0.6,5.9-0.4,8.6,0.7c0.7-0.2,1.4-0.5,2.1-0.9c-3-1.5-5.8-3-8.2-4.5c-0.1-2.4-0.2-4.7-0.1-7.2
		c-1.5-1.9-2-3.8-1.7-5.8c0.1-2.2,0.2-4.6,0.5-7.1c3.5-0.9,5.1-2.2,4.6-4.1c-1.4,0.8-2.9,1.5-4.4,2c-2,0.2-4,0.6-5.9,1.2
		c0.9-1.3,2.1-3,3.8-5.2c1.7-2.2,1.5-3.5-0.4-4.1c-1.5-0.2-3.6,0-6.3,0.6c-2.8,0.6-4.9,1.1-6.5,1.3c-4.3,0-6,1.1-5.2,3.4
		c-2,0.1-4,0.2-5.8,0.2c-1.8,0.1-2.5,0.9-2,2.3c2.5,1.9,4.9,4,7.4,6.2c-2.8,0.2-5.7,0.1-8.9-0.5c-3.3,0.9-6.3,1.8-9.1,2.7
		c-3.1-0.1-4.2-1.3-3.6-3.7c0.7-2.4,1.5-4.2,2.4-5.4c-3.1-0.5-6.5-0.3-10.1,0.6c-7.5,2.5-7.3,3.4,0.7,2.8c-2.4,1.4-6,2.4-10.7,3.1
		c-2.2,1-4.5,1.8-6.9,2.5c-2.1,0.1-3.8,0.1-5.1,0.1c-1.7,1.2-2.6,2.5-2.8,4.1c-1.9,1.8-3.8,3.5-5.6,5.3c-0.7,1-1.5,2.4-2.4,4.1
		c-0.3,0.8-0.6,1.6-0.8,2.4c-0.2,0.8-0.1,1.4,0.2,1.9c1.6-0.9,2.8-2,3.4-3.2c1.5-1.5,3-2.4,4.6-2.9c3.9-0.1,6.4,1.1,7.4,3.5
		c0.1,1,0.2,1.9,0.4,2.9c1.4,0.9,2.7,1.5,3.9,1.7c1.3,1.7,2.1,3.8,2.3,5.9c0.3,4.3,3.8,7.5,10.5,9.7c3.6,1,7.2,1.9,10.8,3
		c2.6,1.4,5.9,2.1,9.7,2.2c-1.4-1.3-3.6-1.7-6.4-1.3c-2.1-1.2-4.2-2.4-6.3-3.6c6.3,0.3,12,1.4,17.2,3.2c5.3,1.8,11.4,2.2,18.2,1.3
		c4.4-0.9,8.8-2,13-3.3c3-0.9,6-1.9,9.1-2.9c3.1-0.5,6.9-0.6,11.2-0.3c4.4,0.4,7.9-0.1,10.3-1.5c-1.8-1.3-1.2-1.9,1.7-2
		c2.9,0,5.1,0.3,6.5,0.9c1.3,1.1,1.6,2.2,0.9,3.4c-0.8,1.2-0.8,2.4,0,3.5c1.2,0.5,2.4,0.9,3.6,1.2c0,0.5,0.1,1,0.3,1.4
		c1.2,0.6,2.6,1,4.2,1.2c3.7,0.5,7.4,0.9,11.3,1.3c3.9,0.2,7.9-0.1,12-0.8c4.2-0.7,7.9-0.4,11.3,0.8c3.5,2.3,7.1,5.9,10.6,10.6
		c3.5,4.7,8.3,6.8,14.5,6.3c1.6-0.3,3.3-0.9,5.2-1.7c-0.6,0-1.2-0.2-1.8-0.4C284.8,108.3,283.7,105.6,284.9,102.1z"/>
	<path class="st0" d="M227.6,3c1.1,1.1,2.2,2.2,3.2,3.4c-0.9,1.1,0.4,2.6,3.9,4.4c3.5,1.7,6.3,3,8.4,3.8c2.7,0.8,5.4,1.9,7.9,3.4
		c2.2,1.8,4.9,3.3,8,4.2c5.6,2.8,11.7,6,18.6,6.7c3.8,0.5,5.5-0.2,8.4-1c1.4-2.4-1.9-3.3-4.3-5.4c0.1-0.1,1.6,0,2.6,0.4
		c0.8,0.3,3.6,0.5,4.3,1.1l-1.1-1.7c0.5-1.8-3.8-4.6-8-7.2c-4.7-1.2-6.4-2.9-10.2-4c-0.5-0.1-1.1-0.3-1.6-0.6
		c-1.4-0.5-2-1.1-1.9-1.8C260,6.9,253.7,5.3,247,4c-3.1-0.8-6.3-1.4-9.5-1.8c-0.8,0-1.5,0.1-2,0.3c-1.1,0.4-2.2,0.6-3.4,0.7
		C230.8,2.6,229.3,2.5,227.6,3z"/>
	<path class="st0" d="M158.1,21.6c-2.4-0.8-5.3-0.8-8.7,0.1c-3.4,0.9-6.5,0.9-9.3-0.2l1.4,0.9c-2.5,0.4-5.2,1.9-8.3,4.5
		c-3,2.6-3.6,4.7-2,6.4c5-2.5,10.4-4.1,15.9-4.8c2.4,0,5,0.3,7.8,0.9c2.8,0.5,5.4,0.4,7.9-0.5c2.9-1.1,2.9-2.2-0.1-3.3
		C161.5,24.1,159.9,22.8,158.1,21.6z"/>
	<path class="st0" d="M163.4,9.6c1.1-0.1,2.7-0.1,4.9,0.1s3.4,0.3,3.6,0.3c2.7-0.8,5.2-1.8,7.7-2.9c2.4,0.4,4.8-0.2,7.1-1.9
		c3.3-0.4,6.1-0.1,8.4,1c-2.9,1.4-5.9,2.6-9,3.4c2.2,0.2,4.4,0.6,6.7,1c2.3-0.9,4.5-2,6.6-3.2c2.6-1,5-1.1,7.4-0.3
		c2.4-0.8,4.6-0.6,6.6,0.4c-0.3,0.6,0.1,1.5,1.2,2.6c1.6-0.1,3.1-0.3,4.7-0.6c2.1,0.2,4.7,0.2,7.8,0.1c3.2-0.1,3.9-1.2,1.9-3.1
		c-2.2-1.4-4.8-2.1-7.8-2.1c-3.1,0-5.5-0.9-7.1-2.9c0.8,0,1.5-0.1,2.3-0.4c0.6-0.2,1.1-0.4,1.7-0.5c-4.5-0.8-9.2-0.7-14.4,0.1
		c-5.4,0-10.7,0.3-16.1,1c-9,1.2-17.9,2.9-26.6,5.3c-1,0.2-2.4,0.6-4.3,1.2c-1.8,0.6-2.1,1.4-0.7,2.4C158.5,10.8,161,10.5,163.4,9.6
		z"/>
	<path class="st0" d="M181.1,75.2c5.3-1.4,10.2-2.8,14.5-4.3c1.7-0.5,2.1-1.1,1.2-1.8c-2.2,0.4-5.4,1.1-9.8,2.3
		C182.6,72.5,180.6,73.8,181.1,75.2z"/>
	<path class="st0" d="M202.9,69.1c1.6-0.6,2.7-1.5,3.2-2.6c0.3-0.5,0.3-1-0.1-1.3c-0.6-0.3-1.4,0.1-2.4,1.1
		C202.6,67.3,202.4,68.2,202.9,69.1z"/>
	<path class="st0" d="M145.8,34.4c-4.1,2.2-8.1,3-12.1,2.3l-4.7,1.1c1.3,1.6,3.1,2.1,5.6,1.4c2.4-0.6,4.4-0.2,5.7,1.5
		c3.2-0.9,6-2,8.2-3.2C146.7,37.1,145.8,36.1,145.8,34.4z"/>
	<path class="st0" d="M175.3,40.9c1.6-1,3.3-2,5.1-3c-0.1-0.5-0.2-0.9-0.5-1.3c-1.7,0.5-3.5,0.9-5.3,1l-1.2,0.1
		C172.7,39.1,173.4,40.2,175.3,40.9z"/>
	<path class="st1" d="M63.8,117.7c3.4-16.7,9.6-32.8,18.5-47.4c2.2-3.6,4.6-7.2,7.1-10.6l0.9-1.3c0.3-0.4,0.6-0.8,1-1.3l1-1.3
		l0.5-0.6l0.5-0.6l2-2.5l2.1-2.4l0.5-0.6l0.5-0.6l1.1-1.2l1.1-1.2c0.4-0.4,0.7-0.8,1.1-1.2c0.7-0.8,1.5-1.5,2.2-2.3l2.3-2.2
		c0.7-0.8,1.6-1.5,2.3-2.2l1.2-1.1c0.4-0.4,0.8-0.7,1.2-1.1l2.4-2.1c0.8-0.7,1.7-1.4,2.5-2l1.2-1c0.4-0.3,0.8-0.7,1.3-1l2.6-1.9
		c1.7-1.2,3.5-2.5,5.3-3.7c3.6-2.4,7.3-4.6,11-6.6c7.6-4,15.5-7.4,23.6-10c4.1-1.3,8.2-2.5,12.4-3.5s8.4-1.8,12.6-2.4l1.6-0.2
		c0.5-0.1,1.1-0.1,1.6-0.2c1.1-0.1,2.1-0.3,3.2-0.4c2.1-0.2,4.3-0.4,6.4-0.6c4.3-0.3,8.6-0.4,12.9-0.4s8.6,0.4,12.8,0.8
		c4.3,0.4,8.5,1,12.7,1.8c4.2,0.8,8.4,1.7,12.5,2.8c2.1,0.5,4.1,1.1,6.2,1.7s4.1,1.3,6.1,2c2,0.7,4,1.4,6,2.2l1.5,0.6l0.7,0.3
		l0.7,0.3l1.5,0.6l1.5,0.6l0.7,0.3l0.7,0.3l1.5,0.7l1.4,0.7l0.7,0.3l0.7,0.4l1.4,0.7l1.4,0.7c1,0.5,1.9,1,2.8,1.5
		c7.5,4.1,14.7,8.9,21.4,14.2c13.4,10.7,24.8,23.8,33.6,38.4c2.2,3.7,4.3,7.4,6.2,11.2c1.9,3.8,3.6,7.7,5.2,11.7c1.6,4,3,8,4.2,12.1
		s2.3,8.2,3.2,12.3c-0.5-2.1-1.1-4.1-1.7-6.2s-1.2-4.1-1.9-6.1c-1.3-4-2.9-8-4.5-11.9c-1.7-3.9-3.5-7.7-5.4-11.5
		c-2-3.7-4.1-7.4-6.4-11c-9-14.3-20.5-27-33.8-37.4c-3.3-2.6-6.7-5.1-10.3-7.4c-3.5-2.3-7.2-4.5-10.9-6.4c-0.9-0.5-1.9-1-2.8-1.5
		l-1.4-0.7l-1.4-0.7l-0.7-0.3l-0.7-0.3l-1.4-0.7l-1.4-0.6l-0.7-0.3l-0.7-0.3l-1.4-0.6L270,15l-0.7-0.3l-0.7-0.3l-1.5-0.6
		c-2-0.7-3.9-1.5-5.9-2.2c-8-2.7-16.2-4.8-24.5-6.3C228.4,3.9,220,3,211.5,2.9c-4.2-0.1-8.4,0.1-12.6,0.3c-2.1,0.1-4.2,0.3-6.3,0.6
		c-1.1,0.1-2.1,0.2-3.1,0.4l-1.6,0.2l-1.6,0.2c-8.3,1.2-16.6,3.1-24.6,5.7c-8,2.6-15.8,5.8-23.3,9.7c-3.7,2-7.4,4.1-10.9,6.4
		c-1.8,1.1-3.5,2.3-5.2,3.5l-2.6,1.8c-0.4,0.3-0.8,0.6-1.3,1l-1.2,1c-6.7,5.2-12.8,11-18.5,17.2l-2.1,2.4l-2,2.4l-0.5,0.6l-0.5,0.6
		l-1,1.2c-0.3,0.4-0.7,0.8-1,1.2l-1,1.3c-2.6,3.4-5,6.8-7.2,10.4l-0.9,1.3l-0.8,1.4c-0.6,0.9-1.1,1.8-1.6,2.7l-1.6,2.8
		c-0.3,0.5-0.5,0.9-0.7,1.4L77,82c-2,3.7-3.8,7.6-5.4,11.5c-1.7,3.9-3.1,7.9-4.4,11.9c-0.7,2-1.3,4.1-1.9,6.1
		C64.8,113.6,64.3,115.6,63.8,117.7z"/>
	<path class="st1" d="M24.6,153.4v-0.9c1.2,0,1.9-0.3,1.9-0.9v-23.1c0-0.6-0.6-0.9-1.9-0.9v-0.9h17.9c3.2,0,5.8,0.6,7.7,1.8
		c1.9,1.2,2.8,3.2,2.8,6.1s-0.9,4.9-2.8,6.1c-1.9,1.2-4.4,1.8-7.7,1.8H32.3v9c0,0.6,0.5,0.9,1.6,0.9v0.9L24.6,153.4z M43.1,137.8
		c1.1,0,2.1-0.2,2.9-0.7c0.8-0.4,1.2-1.3,1.2-2.6s-0.4-2.2-1.2-2.6c-0.8-0.4-1.7-0.7-2.9-0.7H32.3v6.5L43.1,137.8z"/>
	<path class="st1" d="M55.4,152.4c0.4-0.1,0.7-0.3,1-0.6c0.2-0.3,0.4-0.6,0.6-0.9l7.6-16.5c0.2-0.5,0.4-0.9,0.5-1.1
		c0.1-0.3,0.2-0.6,0.2-0.8c0-0.2,0-0.3-0.1-0.4c-0.1-0.1-0.2-0.1-0.3-0.2V131h7.7v0.9c-0.1,0.1-0.2,0.1-0.3,0.2
		c-0.1,0-0.2,0.2-0.2,0.4c0,0.3,0.1,0.5,0.2,0.7c0.2,0.3,0.3,0.6,0.5,1l8.2,17.3c0.1,0.3,0.3,0.5,0.6,0.7c0.2,0.1,0.4,0.2,0.7,0.3
		v0.9h-7.2v-0.8c0.2,0,0.4-0.1,0.5-0.2c0.2-0.1,0.3-0.3,0.3-0.6c0-0.2,0-0.4-0.1-0.6c-0.1-0.2-0.2-0.4-0.2-0.7l-1.4-2.9H63.1
		l-1.4,2.7c-0.1,0.3-0.2,0.5-0.3,0.7c-0.1,0.2-0.1,0.4-0.1,0.6c0,0.3,0.1,0.4,0.2,0.5c0.2,0.1,0.5,0.1,0.7,0.1v0.9h-6.8L55.4,152.4
		L55.4,152.4z M72.4,144l-4.1-8.5l-3.6,8.5L72.4,144z"/>
	<path class="st1" d="M87.5,132.7c0-0.5-0.4-0.8-1.3-0.8V131h14.8c2.7,0,4.8,0.5,6.2,1.5c1.4,1,2.1,2.7,2.1,5.1
		c0,2.4-0.7,4.1-2.1,5.1c-1.4,0.9-3.4,1.4-6.2,1.4h-8.6v7.6c0,0.5,0.4,0.8,1.1,0.8v0.9h-7.2v-0.9c0.8,0,1.3-0.2,1.3-0.8L87.5,132.7z
		 M101,140.3c1,0,1.8-0.2,2.5-0.5c0.7-0.4,1-1.1,1-2.2c0-1.1-0.3-1.8-1-2.2c-0.7-0.4-1.5-0.6-2.5-0.6h-8.5v5.5L101,140.3z"/>
	<path class="st1" d="M134.9,135.7c0-0.6-0.5-1-1.6-1h-12.4v5.1h7.8c0.4,0,0.9,0,1.3-0.1c0.3-0.1,0.4-0.3,0.4-0.7h0.9v5.4h-1
		c0.1-0.4,0-0.6-0.4-0.7c-0.5-0.1-1.1-0.1-1.6-0.1h-7.4v6h13c0.4,0,0.7-0.1,1-0.3c0.2-0.2,0.4-0.4,0.4-0.7h0.9v5.3h-0.9
		c0-0.3-0.1-0.5-0.4-0.5c-0.3,0-0.7-0.1-1-0.1h-18.7v-0.9c0.2,0,0.4-0.1,0.5-0.2c0.2-0.1,0.3-0.4,0.2-0.6v-19c0-0.2-0.1-0.4-0.2-0.6
		c-0.1-0.1-0.3-0.2-0.5-0.2V131h18c1.1,0,1.6-0.3,1.6-0.9h0.9v5.6L134.9,135.7z"/>
	<path class="st1" d="M157.4,131c3,0,5.4,0.5,7.1,1.5c1.7,1,2.5,2.7,2.5,5.1c0,0.8-0.2,1.7-0.5,2.4c-0.3,0.7-0.8,1.3-1.3,1.9
		c-0.6,0.5-1.2,0.9-1.9,1.3c-0.7,0.3-1.4,0.6-2.1,0.7l5,7.3c0.2,0.3,0.5,0.6,0.9,0.8c0.3,0.2,0.7,0.3,1,0.4v0.9h-7.8v-0.9
		c0.4,0,0.7-0.2,0.7-0.5c0-0.3-0.2-0.9-0.8-1.6l-4-6h-7.1v7.3c0,0.2,0.1,0.5,0.3,0.6c0.2,0.1,0.4,0.2,0.6,0.2v0.9h-6.8v-0.9
		c0.6,0,0.9-0.2,0.9-0.8v-19c0-0.5-0.3-0.8-0.9-0.8V131L157.4,131z M157.3,140.7c3.3,0,5-1.1,5-3.2c0-0.8-0.4-1.5-1.2-2
		c-0.8-0.5-2.1-0.7-3.8-0.7h-8v5.9L157.3,140.7z"/>
	<path class="st1" d="M190.4,152.4c0.2,0,0.5-0.1,0.7-0.2c0.2-0.2,0.3-0.4,0.3-0.7v-23.2c0-0.3-0.1-0.5-0.3-0.6
		c-0.2-0.1-0.5-0.2-0.7-0.2v-0.9h9.5v0.9c-0.2,0-0.4,0.1-0.5,0.2c-0.2,0.1-0.3,0.3-0.3,0.5c0,0.2,0.1,0.5,0.2,0.7
		c0.1,0.3,0.3,0.6,0.5,0.9l7.3,13.2l7.3-13.1c0.2-0.4,0.4-0.8,0.5-1c0.1-0.2,0.2-0.4,0.2-0.7c0-0.4-0.2-0.6-0.7-0.6v-0.9h9.4v0.9
		c-0.2,0-0.5,0.1-0.7,0.2c-0.2,0.1-0.3,0.3-0.3,0.6v23.2c0,0.3,0.1,0.5,0.3,0.7c0.2,0.2,0.5,0.2,0.7,0.2v0.9h-8v-0.9
		c0.9,0,1.4-0.3,1.4-0.9v-16.9h-0.1l-10.2,18.7h-0.2l-10-18.8h-0.1v16.9c0,0.6,0.5,0.9,1.4,0.9v0.9h-7.6L190.4,152.4z"/>
	<path class="st1" d="M229,152.4c0.4-0.1,0.7-0.3,1-0.6c0.2-0.3,0.4-0.6,0.6-0.9l7.6-16.5c0.2-0.5,0.4-0.9,0.5-1.1
		c0.1-0.3,0.2-0.6,0.2-0.8c0-0.2,0-0.3-0.1-0.4s-0.2-0.1-0.3-0.2V131h7.7v0.9c-0.1,0.1-0.2,0.1-0.3,0.2c-0.1,0-0.2,0.2-0.2,0.4
		c0,0.3,0.1,0.5,0.2,0.7c0.2,0.3,0.3,0.6,0.5,1l8.2,17.3c0.1,0.3,0.3,0.5,0.6,0.7c0.2,0.1,0.4,0.2,0.7,0.3v0.9h-7.2v-0.8
		c0.2,0,0.4-0.1,0.5-0.2c0.2-0.1,0.3-0.3,0.3-0.6c0-0.2,0-0.4-0.1-0.6c-0.1-0.2-0.2-0.4-0.2-0.7l-1.4-2.9h-10.9l-1.4,2.7
		c-0.1,0.3-0.2,0.5-0.3,0.7c-0.1,0.2-0.1,0.4-0.1,0.6c0,0.3,0.1,0.4,0.2,0.5c0.2,0.1,0.5,0.1,0.7,0.1v0.9H229L229,152.4z M246,144
		l-4.1-8.5l-3.6,8.5H246z"/>
	<path class="st1" d="M262.2,145.6c0,0.1,0,0.3,0,0.4c0,0.2,0,0.3,0,0.5c0,0.5,0.3,1,1,1.4c0.7,0.5,1.5,0.8,2.3,1.1
		c0.9,0.3,1.8,0.5,2.7,0.7c0.7,0.1,1.4,0.2,2.1,0.2c0.5,0,1.1,0,1.7-0.1c0.7-0.1,1.4-0.2,2.1-0.4c0.6-0.2,1.2-0.5,1.7-0.9
		c0.5-0.4,0.7-0.9,0.7-1.6c0-0.7-0.4-1.3-1.2-1.6c-1-0.4-2.1-0.6-3.1-0.8c-1.2-0.2-2.6-0.4-4.1-0.6c-1.4-0.2-2.7-0.5-4.1-0.9
		c-1.2-0.4-2.2-1-3.1-1.8c-0.8-0.8-1.2-1.9-1.2-3.4c0-2.2,0.9-3.9,2.7-5.2c1.8-1.3,4.3-1.9,7.6-1.9c1.6,0,3,0.1,4.1,0.4
		c1,0.2,1.9,0.5,2.9,0.8c0.8,0.3,1.4,0.6,1.9,0.8s0.9,0.4,1.1,0.4c0.2,0,0.4,0,0.6-0.1c0.1-0.1,0.3-0.2,0.5-0.3l0.6,0.6l-2.5,4.8
		l-0.9-0.3c0-0.2-0.1-0.4-0.1-0.6c0-0.2-0.2-0.4-0.5-0.6c-0.7-0.6-1.7-1.1-3.2-1.5c-1.6-0.4-3.2-0.6-4.8-0.6c-0.6,0-1.3,0-1.9,0.1
		c-0.6,0.1-1.1,0.2-1.6,0.4c-0.4,0.2-0.8,0.4-1.1,0.8c-0.3,0.3-0.4,0.8-0.4,1.2c0,0.7,0.4,1.3,1.2,1.6c1,0.4,2.1,0.6,3.1,0.8
		c1.2,0.2,2.6,0.4,4.1,0.6c1.4,0.2,2.7,0.5,4.1,0.9c1.2,0.4,2.2,1.1,3.1,1.9c0.8,0.8,1.2,2,1.2,3.5c0,1.5-0.4,2.7-1.1,3.7
		c-0.7,0.9-1.7,1.7-2.7,2.2c-1.1,0.6-2.3,0.9-3.6,1.1c-1.2,0.2-2.4,0.2-3.7,0.2c-1.2,0-2.3-0.1-3.4-0.3c-1.1-0.2-2.1-0.4-3.1-0.8
		c-0.9-0.3-1.7-0.6-2.4-0.8c-0.6-0.2-1-0.4-1.2-0.4c-0.2,0-0.5,0.1-0.6,0.3l-0.7-0.5l2.3-5.7L262.2,145.6z"/>
	<path class="st1" d="M294.3,152.4c0.2,0,0.4-0.1,0.5-0.2c0.2-0.1,0.3-0.4,0.2-0.6v-16.9h-6.6c-0.3,0-0.5,0.1-0.8,0.2
		c-0.2,0.1-0.4,0.4-0.4,0.7h-0.9v-5.9h0.9c0,0.5,0.1,0.8,0.4,1c0.2,0.2,0.5,0.2,0.8,0.2h18.1c0.3,0,0.5-0.1,0.8-0.2
		c0.2-0.2,0.4-0.5,0.4-1h0.9v5.8h-0.9c0-0.3-0.1-0.5-0.4-0.7c-0.2-0.1-0.5-0.2-0.8-0.2H300v16.9c0,0.5,0.3,0.8,0.9,0.8v0.9h-6.6
		V152.4z"/>
	<path class="st1" d="M334,135.7c0-0.6-0.5-1-1.6-1H320v5.1h7.8c0.4,0,0.9,0,1.3-0.1c0.3-0.1,0.4-0.3,0.4-0.7h0.9v5.4h-1
		c0.1-0.4,0-0.6-0.4-0.7c-0.5-0.1-1.1-0.1-1.6-0.1H320v6h13c0.4,0,0.7-0.1,1-0.3c0.2-0.2,0.4-0.4,0.4-0.7h0.9v5.3h-0.9
		c0-0.3-0.1-0.5-0.4-0.5c-0.3,0-0.7-0.1-1-0.1h-18.6v-0.9c0.2,0,0.4-0.1,0.5-0.2c0.2-0.1,0.3-0.4,0.2-0.6v-19c0-0.2-0.1-0.4-0.2-0.6
		c-0.1-0.1-0.3-0.2-0.5-0.2V131h18c1.1,0,1.6-0.3,1.6-0.9h0.9v5.6L334,135.7z"/>
	<path class="st1" d="M356.5,131c3,0,5.4,0.5,7.1,1.5c1.7,1,2.5,2.7,2.6,5.1c0,0.8-0.2,1.7-0.5,2.4c-0.3,0.7-0.8,1.3-1.3,1.9
		c-0.6,0.5-1.2,0.9-1.9,1.3c-0.7,0.3-1.4,0.6-2.1,0.7l5,7.3c0.2,0.3,0.5,0.6,0.9,0.8c0.3,0.2,0.7,0.3,1,0.4v0.9h-7.8v-0.9
		c0.4,0,0.7-0.2,0.7-0.5c0-0.3-0.2-0.9-0.8-1.6l-4-6h-7.1v7.3c0,0.2,0.1,0.5,0.3,0.6c0.2,0.1,0.4,0.2,0.6,0.2v0.9h-6.8v-0.9
		c0.6,0,0.9-0.2,0.9-0.8v-19c0-0.5-0.3-0.8-0.9-0.8V131L356.5,131z M356.4,140.7c3.3,0,5-1.1,5-3.2c0-0.8-0.4-1.5-1.2-2
		c-0.8-0.5-2.1-0.7-3.8-0.7h-8v5.9L356.4,140.7z"/>
	<path class="st1" d="M375.2,145.6c0,0.1,0,0.3,0,0.4c0,0.2,0,0.3,0,0.5c0,0.5,0.3,1,1,1.4c0.7,0.5,1.5,0.8,2.3,1.1
		c0.9,0.3,1.8,0.5,2.7,0.7c0.7,0.1,1.4,0.2,2.1,0.2c0.5,0,1.1,0,1.7-0.1c0.7-0.1,1.4-0.2,2.1-0.4c0.6-0.2,1.2-0.5,1.7-0.9
		c0.5-0.4,0.7-0.9,0.7-1.6c0-0.7-0.4-1.3-1.2-1.6c-1-0.4-2.1-0.6-3.1-0.8c-1.2-0.2-2.6-0.4-4.1-0.6c-1.4-0.2-2.7-0.5-4.1-0.9
		c-1.2-0.4-2.2-1-3.1-1.8c-0.8-0.8-1.2-1.9-1.2-3.4c0-2.2,0.9-3.9,2.7-5.2c1.8-1.3,4.3-1.9,7.6-1.9c1.6,0,3,0.1,4.1,0.4
		c1,0.2,1.9,0.5,2.9,0.8c0.6,0.2,1.3,0.5,1.9,0.8c0.5,0.2,0.9,0.4,1.1,0.4c0.2,0,0.4,0,0.6-0.1c0.1-0.1,0.3-0.2,0.5-0.3l0.6,0.6
		l-2.5,4.8l-0.9-0.3c0-0.2-0.1-0.4-0.1-0.6c0-0.2-0.2-0.4-0.5-0.6c-0.7-0.6-1.7-1.1-3.2-1.5c-1.6-0.4-3.2-0.6-4.8-0.6
		c-0.6,0-1.3,0-1.9,0.1c-0.6,0.1-1.1,0.2-1.6,0.4c-0.4,0.2-0.8,0.4-1.1,0.8c-0.3,0.3-0.4,0.8-0.4,1.2c0,0.7,0.4,1.3,1.2,1.6
		c1,0.4,2.1,0.6,3.1,0.8c1.2,0.2,2.6,0.4,4.1,0.6c1.4,0.2,2.7,0.5,4.1,0.9c1.2,0.4,2.2,1.1,3.1,1.9c0.8,0.8,1.2,2,1.2,3.5
		c0,1.5-0.4,2.7-1.1,3.7c-0.7,0.9-1.7,1.7-2.7,2.2c-1.1,0.6-2.3,0.9-3.6,1.1c-1.2,0.2-2.4,0.2-3.7,0.2c-1.2,0-2.3-0.1-3.4-0.3
		c-1.1-0.2-2.1-0.4-3.1-0.8c-0.9-0.3-1.7-0.6-2.4-0.8c-0.6-0.2-1-0.4-1.2-0.4c-0.2,0-0.5,0.1-0.6,0.3l-0.7-0.5l2.3-5.7L375.2,145.6z
		"/>
	<path class="st1" d="M1,165.8c8.5-0.4,17.1-0.6,25.6-0.9s17.1-0.5,25.6-0.7l12.8-0.3l12.8-0.2c8.5-0.2,17.1-0.3,25.6-0.4
		c34.1-0.5,68.3-0.7,102.4-0.7c34.1,0,68.3,0.2,102.4,0.7c8.5,0.1,17.1,0.3,25.6,0.4l12.8,0.2l12.8,0.3l12.8,0.3
		c4.3,0.1,8.5,0.2,12.8,0.4c8.5,0.3,17.1,0.5,25.6,0.9c-8.5,0.4-17.1,0.7-25.6,0.9c-4.3,0.1-8.5,0.2-12.8,0.4l-12.8,0.3l-12.8,0.3
		l-12.8,0.2c-8.5,0.2-17.1,0.3-25.6,0.4c-34.1,0.5-68.3,0.7-102.4,0.7c-34.1,0-68.3-0.2-102.4-0.7c-8.5-0.1-17.1-0.3-25.6-0.4
		L65,167.6l-12.8-0.3c-8.5-0.2-17.1-0.4-25.6-0.7C18.1,166.4,9.5,166.1,1,165.8z"/>
	<g>
		<path class="st1" d="M34.8,188.6h-5.2l0.1-0.4c0.7,0,0.8-0.4,0.8-0.7l0-0.6c-0.6,0.2-1.5,0.3-2.6,0.3c-0.7,0-1.6-0.1-2.2-0.3
			l-0.2,0.3c-0.1,0.2-0.3,0.5-0.3,0.6c0,0.2,0.2,0.3,0.6,0.3l-0.1,0.4h-5.3l0.1-0.4c0.5,0,0.7-0.1,1.2-0.8l6.6-9.7
			c0.3-0.4,0.4-0.7,0.4-0.8c0-0.2-0.2-0.3-0.4-0.4l0.1-0.4h5.4l-0.1,0.4c-0.3,0-0.5,0.2-0.5,0.5c0,0.2,0,0.4,0,0.8l0.8,9.5
			c0.1,0.7,0.2,0.8,0.7,0.8L34.8,188.6z M30.2,179.6L30.2,179.6l-3,4.9c0.4,0.1,1.1,0.2,1.6,0.2c0.5,0,1.3-0.1,1.7-0.2L30.2,179.6z"
			/>
		<path class="st1" d="M46.1,188.8c-2.4,0-4.7-0.1-5.6-0.2l0.1-0.4c0.6,0,0.9-0.3,1.1-1l2.8-9.8c0-0.1,0.1-0.3,0.1-0.4
			c0-0.3-0.3-0.4-0.6-0.4l0.1-0.4c1.1-0.1,2.9-0.2,5.1-0.2c4.5,0,6.8,1.8,6.8,5C56,185.1,52.6,188.8,46.1,188.8z M49.1,178.5
			c-0.4,0-0.8,0-1.2,0l-2.2,7.5c0.2,0,0.7,0.1,1.1,0.1c3.1,0,5.5-2.5,5.5-5.2C52.4,179.2,50.8,178.5,49.1,178.5z"/>
		<path class="st1" d="M63.4,178.7l-0.1,0.4c-0.4,0-0.7,0.2-0.9,0.8l-2.2,7.6c0,0.2-0.1,0.3-0.1,0.4c0,0.3,0.1,0.4,0.5,0.4l-0.1,0.4
			h-4.7l0.1-0.4c0.5,0,0.8-0.3,0.9-0.8l2.2-7.6c0-0.1,0-0.2,0-0.3c0-0.2-0.2-0.4-0.5-0.4l0.1-0.4H63.4z"/>
		<path class="st1" d="M77.4,178.7l-0.1,0.4c-0.5,0-0.7,0.2-1.1,0.8l-5.7,7.4c-0.2,0.2-0.4,0.6-0.4,0.7c0,0.1,0.2,0.2,0.4,0.2
			l-0.1,0.4h-4.7l0.1-0.4c0.4,0,0.5-0.1,0.5-0.4c0-0.2,0-0.5-0.1-0.6l-1.4-7.5c-0.1-0.6-0.2-0.7-0.6-0.7l0.1-0.4H69l-0.1,0.4
			c-0.4,0-0.7,0.1-0.7,0.4c0,0.1,0,0.2,0,0.3l0.6,5.3h0.1l3.7-5.3c0.1-0.1,0.2-0.3,0.2-0.5c0-0.2-0.2-0.3-0.6-0.3l0.1-0.4H77.4z"/>
		<path class="st1" d="M82.9,178.7l-0.1,0.4c-0.4,0-0.7,0.2-0.9,0.8l-2.2,7.6c0,0.2-0.1,0.3-0.1,0.4c0,0.3,0.1,0.4,0.5,0.4l-0.1,0.4
			h-4.7l0.1-0.4c0.5,0,0.8-0.3,0.9-0.8l2.2-7.6c0-0.1,0-0.2,0-0.3c0-0.2-0.2-0.4-0.5-0.4l0.1-0.4H82.9z"/>
		<path class="st1" d="M92.2,181.6l-0.5,0.1c-0.4-0.7-1.2-1.1-2.7-1.1c-1.3,0-1.8,0.2-1.8,0.7c0,0.4,0.3,0.6,1.8,1.2
			c1.4,0.5,2.5,1.5,2.5,2.9c0,1.7-1.4,3.3-5.1,3.3c-1.2,0-2.5-0.4-3-0.4c-0.3,0-0.6,0.1-0.8,0.1l-0.6-3.4l0.5-0.1
			c0.7,1,1.8,1.5,3.1,1.5c1.6,0,2.1-0.4,2.1-0.8c0-0.5-0.3-0.7-2-1.4c-1.3-0.5-2.2-1.3-2.2-2.7c0-2,2.3-3.2,5.3-3.2
			c0.8,0,1.9,0.2,2.3,0.2c0.3,0,0.5,0,0.7-0.1L92.2,181.6z"/>
		<path class="st1" d="M99.2,178.7l-0.1,0.4c-0.4,0-0.7,0.2-0.9,0.8l-2.2,7.6c0,0.2-0.1,0.3-0.1,0.4c0,0.3,0.1,0.4,0.5,0.4l-0.1,0.4
			h-4.7l0.1-0.4c0.5,0,0.8-0.3,0.9-0.8l2.2-7.6c0-0.1,0-0.2,0-0.3c0-0.2-0.2-0.4-0.5-0.4l0.1-0.4H99.2z"/>
		<path class="st1" d="M103.8,188.9c-3.1,0-4.9-1.5-4.9-3.9c0-3.7,3.3-6.7,7.4-6.7c3.1,0,5,1.5,5,3.8
			C111.3,185.9,108.4,188.9,103.8,188.9z M106,180.6c-2.4,0-3.7,2.7-3.7,4.4c0,1.1,0.8,1.7,1.9,1.7c2.4,0,3.7-2.7,3.7-4.5
			C107.9,181.1,107.1,180.6,106,180.6z"/>
		<path class="st1" d="M125.6,178.7l-0.1,0.4c-0.5,0-0.7,0.2-0.9,0.8l-2.6,8.8h-2.9c0-0.3,0-0.6-0.1-0.8l-2.5-5.2h-0.1l-1.4,4.8
			c0,0.1-0.1,0.2-0.1,0.4c0,0.3,0.1,0.5,0.5,0.5l-0.1,0.4H111l0.1-0.4c0.5,0,0.8-0.3,0.9-0.8l2.2-7.7c0-0.1,0.1-0.2,0.1-0.3
			c0-0.2-0.2-0.4-0.5-0.4l0.1-0.4h4.4c0,0.3,0,0.5,0.2,0.9l1.9,4h0.1l1.1-3.8c0-0.1,0.1-0.3,0.1-0.4c0-0.2-0.2-0.4-0.6-0.4l0.1-0.4
			H125.6z"/>
		<path class="st1" d="M134.8,188.9c-3.1,0-4.9-1.5-4.9-3.9c0-3.7,3.3-6.7,7.4-6.7c3.1,0,5,1.5,5,3.8
			C142.3,185.9,139.3,188.9,134.8,188.9z M136.9,180.6c-2.4,0-3.7,2.7-3.7,4.4c0,1.1,0.8,1.7,1.9,1.7c2.4,0,3.7-2.7,3.7-4.5
			C138.9,181.1,138,180.6,136.9,180.6z"/>
		<path class="st1" d="M153.5,181.2l-0.4,0.1c-0.1-0.4-0.6-0.5-1.1-0.5h-4l-0.5,1.8h3c0.4,0,0.7-0.2,0.8-0.6h0.5l-1,3.4h-0.5
			c0-0.1,0-0.1,0-0.2c0-0.2-0.2-0.4-0.5-0.4h-3l-0.8,2.7c0,0.1-0.1,0.2-0.1,0.3c0,0.3,0.1,0.4,0.5,0.4l-0.1,0.4h-4.7l0.1-0.4
			c0.5,0,0.8-0.2,0.9-0.7l2.2-7.7c0-0.1,0-0.2,0-0.3c0-0.3-0.2-0.4-0.5-0.4l0.1-0.4h7.5c0.4,0,0.8-0.1,1.1-0.1L153.5,181.2z"/>
		<path class="st1" d="M170.4,179.3l-0.4,0.1c-0.2-0.5-0.5-0.7-1.2-0.7h-4.6l-0.6,2.2h4.1c0.5,0,0.8-0.2,0.9-0.6h0.5l-1.1,3.8h-0.5
			c0,0,0.1-0.2,0.1-0.2c0-0.2-0.2-0.3-0.5-0.3h-4.2L162,186h4.8c0.8,0,1.1-0.2,1.6-0.8l0.4,0.2l-1.8,3.4c-0.3-0.1-0.9-0.2-1.3-0.2
			h-8.9l0.1-0.4c0.6,0,0.9-0.3,1.1-0.9l2.8-9.8c0-0.1,0.1-0.3,0.1-0.4c0-0.3-0.2-0.5-0.6-0.5l0.1-0.4h8.5c0.3,0,1-0.1,1.2-0.1
			L170.4,179.3z"/>
		<path class="st1" d="M194.5,178.7l-0.1,0.4c-0.4,0-0.6,0.1-1,0.7l-5.3,7.4c-0.3,0.4-0.5,0.7-0.5,0.9s0.1,0.2,0.4,0.2l-0.1,0.4H183
			l0.1-0.4c0.4,0,0.5-0.2,0.5-0.4c0-0.2,0-0.5,0-0.6l-0.3-2.4h-0.1l-1.6,2.4c-0.2,0.4-0.5,0.7-0.5,0.9c0,0.1,0.1,0.2,0.3,0.2
			l-0.1,0.4h-4.6l0.1-0.4c0.4,0,0.5-0.2,0.5-0.5c0-0.3,0-0.7,0-0.9l-0.7-6.9c-0.1-0.6-0.1-0.8-0.6-0.8l0.1-0.4h4.8l-0.1,0.4
			c-0.5,0-0.7,0.1-0.7,0.4c0,0.1,0,0.4,0,0.7l0.1,4.8h0.1l3.1-4.4h2.3l0.5,4.4h0.1l3.5-5.2c0.1-0.1,0.1-0.4,0.1-0.5
			c0-0.2-0.1-0.3-0.5-0.3l0.1-0.4H194.5z"/>
		<path class="st1" d="M198,188.9c-3.1,0-4.9-1.5-4.9-3.9c0-3.7,3.3-6.7,7.4-6.7c3.1,0,5,1.5,5,3.8
			C205.5,185.9,202.5,188.9,198,188.9z M200.1,180.6c-2.4,0-3.7,2.7-3.7,4.4c0,1.1,0.8,1.7,1.9,1.7c2.4,0,3.7-2.7,3.7-4.5
			C202.1,181.1,201.2,180.6,200.1,180.6z"/>
		<path class="st1" d="M214.5,184.9c0,0.9,0.4,2,0.8,2.8c0.1,0.2,0.2,0.4,0.8,0.4l-0.1,0.4h-4c-0.4-0.8-0.5-2.1-0.5-3
			c-0.4,0-1.1,0-1.6,0l-0.5,1.8c0,0.2-0.1,0.3-0.1,0.4c0,0.3,0.2,0.4,0.5,0.4l-0.1,0.4H205l0.1-0.4c0.5,0,0.7-0.2,0.9-0.8l2.2-7.6
			c0-0.1,0-0.2,0-0.3c0-0.3-0.2-0.4-0.5-0.4l0.1-0.4c0.9,0,2.7-0.1,4.5-0.1c4.2,0,5.6,1.1,5.6,2.8
			C218,183.4,216.6,184.4,214.5,184.9z M212.2,180.7c-0.3,0-0.6,0-0.9,0.1l-0.8,2.7c0.3,0,0.6,0.1,0.9,0.1c1.8,0,3-0.7,3-1.7
			C214.4,181,213.9,180.7,212.2,180.7z"/>
		<path class="st1" d="M227.7,185.9l-1.6,2.8c-0.2-0.1-0.7-0.1-1-0.1h-8.1l0.1-0.4c0.5,0,0.7-0.2,0.9-0.8l2.2-7.5
			c0-0.1,0.1-0.3,0.1-0.4c0-0.3-0.2-0.5-0.5-0.5l0.1-0.4h4.7l-0.1,0.4c-0.4,0-0.8,0.2-0.9,0.8l-1.9,6.6h4.4c0.6,0,1-0.3,1.3-0.7
			L227.7,185.9z"/>
		<path class="st1" d="M232.8,188.7c-1.5,0-4.3,0-5.1-0.1l0.1-0.4c0.5,0,0.7-0.2,0.9-0.8l2.2-7.5c0-0.1,0.1-0.3,0.1-0.4
			c0-0.3-0.2-0.4-0.5-0.4l0.1-0.4c1-0.1,2.5-0.2,4.3-0.2c3.7,0,5.8,1.4,5.8,4.1C240.7,186.6,236.9,188.7,232.8,188.7z M234.9,180.7
			c-0.2,0-0.6,0-0.9,0l-1.7,5.8c0.2,0,0.6,0,0.8,0c2.2,0,4.2-1.7,4.2-3.8C237.4,181.3,236.5,180.7,234.9,180.7z"/>
		<path class="st1" d="M251.6,185.2c-0.4,0-1.2-0.1-1.7-0.1l-0.6,2.1c-0.1,0.2-0.1,0.4-0.1,0.5c0,0.4,0.2,0.5,0.6,0.5l-0.1,0.4h-5.4
			l0.1-0.4c0.6,0,0.9-0.3,1.1-1l2.9-9.9c0-0.1,0.1-0.2,0.1-0.3c0-0.3-0.3-0.5-0.7-0.5l0.1-0.4c1-0.1,3.6-0.1,5.5-0.1
			c3.4,0,6,1.3,6,4.1C259.5,183.5,255.7,185.2,251.6,185.2z M253.2,178.5c-0.4,0-0.9,0-1.3,0l-1.2,4.1c0.4,0,0.9,0.1,1.4,0.1
			c1.8,0,3.6-1,3.6-2.7C255.6,178.9,254.6,178.5,253.2,178.5z"/>
		<path class="st1" d="M273,178.7l-0.1,0.4c-0.5,0-0.7,0.2-0.9,0.8l-1.6,5.6c-0.2,0.6-0.2,1.2-0.1,1.4c-1.2,1.4-3.3,2.1-5.8,2.1
			c-2.4,0-3.8-0.8-4.9-2.1c0.2-0.2,0.4-0.7,0.6-1.4l1.6-5.6c0-0.1,0.1-0.2,0.1-0.4c0-0.3-0.2-0.4-0.5-0.4l0.1-0.4h4.7L266,179
			c-0.5,0-0.7,0.2-0.9,0.7l-1.6,5.5c0,0.1-0.1,0.3-0.1,0.4c0,0.7,0.7,1,1.7,1c1,0,1.9-0.5,2.1-1.3l1.6-5.5c0-0.1,0.1-0.3,0.1-0.4
			c0-0.3-0.2-0.4-0.5-0.4l0.1-0.4H273z"/>
		<path class="st1" d="M281.5,183.2L281.5,183.2c0.9,0.4,1.5,0.9,1.5,2c0,2.4-2.5,3.5-7.5,3.5c-1.5,0-3.4-0.1-4.2-0.1l0.1-0.4
			c0.5,0,0.7-0.2,0.9-0.8l2.2-7.7c0-0.1,0.1-0.3,0.1-0.4c0-0.3-0.2-0.4-0.5-0.4l0.1-0.4c0.9-0.1,3.1-0.2,4.6-0.2
			c3.8,0,5.2,0.8,5.2,2.3C283.9,182.1,282.8,182.9,281.5,183.2z M277.8,184.4c-0.4,0-0.9,0-1.3,0.1l-0.6,2.1c0.2,0,0.7,0.1,0.8,0.1
			c2.3,0,2.9-0.5,2.9-1.3C279.6,184.8,279.4,184.4,277.8,184.4z M278.5,180.6c-0.2,0-0.7,0-0.9,0l-0.5,1.7c0.2,0,0.6,0.1,0.8,0.1
			c1.5,0,2.5-0.4,2.5-1.1C280.4,180.9,280.2,180.6,278.5,180.6z"/>
		<path class="st1" d="M294,185.9l-1.6,2.8c-0.2-0.1-0.7-0.1-1-0.1h-8.1l0.1-0.4c0.5,0,0.7-0.2,0.9-0.8l2.2-7.5
			c0-0.1,0.1-0.3,0.1-0.4c0-0.3-0.2-0.5-0.5-0.5l0.1-0.4h4.7l-0.1,0.4c-0.4,0-0.8,0.2-0.9,0.8l-1.9,6.6h4.4c0.6,0,1-0.3,1.3-0.7
			L294,185.9z"/>
		<path class="st1" d="M301.8,178.7l-0.1,0.4c-0.4,0-0.7,0.2-0.9,0.8l-2.2,7.6c0,0.2-0.1,0.3-0.1,0.4c0,0.3,0.1,0.4,0.5,0.4
			l-0.1,0.4h-4.7l0.1-0.4c0.5,0,0.8-0.3,0.9-0.8l2.2-7.6c0-0.1,0-0.2,0-0.3c0-0.2-0.2-0.4-0.5-0.4l0.1-0.4H301.8z"/>
		<path class="st1" d="M311.1,181.6l-0.5,0.1c-0.4-0.7-1.2-1.1-2.7-1.1c-1.3,0-1.8,0.2-1.8,0.7c0,0.4,0.3,0.6,1.8,1.2
			c1.4,0.5,2.5,1.5,2.5,2.9c0,1.7-1.4,3.3-5.1,3.3c-1.2,0-2.5-0.4-3-0.4c-0.3,0-0.6,0.1-0.8,0.1l-0.6-3.4l0.5-0.1
			c0.7,1,1.8,1.5,3.1,1.5c1.6,0,2.1-0.4,2.1-0.8c0-0.5-0.3-0.7-2-1.4c-1.3-0.5-2.2-1.3-2.2-2.7c0-2,2.3-3.2,5.3-3.2
			c0.8,0,1.9,0.2,2.3,0.2c0.3,0,0.5,0,0.7-0.1L311.1,181.6z"/>
		<path class="st1" d="M325.3,178.7l-0.1,0.4c-0.5,0-0.8,0.2-0.9,0.8l-2.2,7.5c0,0.1-0.1,0.3-0.1,0.4c0,0.3,0.1,0.5,0.5,0.5
			l-0.1,0.4h-4.7l0.1-0.4c0.5,0,0.8-0.3,0.9-0.8l0.8-2.8h-3.8l-0.8,2.8c0,0.1,0,0.2,0,0.3c0,0.4,0.1,0.5,0.5,0.5l-0.1,0.4h-4.7
			l0.1-0.4c0.5,0,0.8-0.3,0.9-0.8l2.2-7.6c0-0.1,0-0.2,0-0.2c0-0.3-0.2-0.4-0.5-0.4l0.1-0.4h4.7l-0.1,0.4c-0.5,0-0.7,0.2-0.9,0.8
			l-0.7,2.5h3.8l0.8-2.6c0-0.1,0-0.2,0-0.3c0-0.2-0.2-0.4-0.5-0.4l0.1-0.4H325.3z"/>
		<path class="st1" d="M331.4,178.7l-0.1,0.4c-0.4,0-0.7,0.2-0.9,0.8l-2.2,7.6c0,0.2-0.1,0.3-0.1,0.4c0,0.3,0.1,0.4,0.5,0.4
			l-0.1,0.4h-4.7l0.1-0.4c0.5,0,0.8-0.3,0.9-0.8l2.2-7.6c0-0.1,0-0.2,0-0.3c0-0.2-0.2-0.4-0.5-0.4l0.1-0.4H331.4z"/>
		<path class="st1" d="M344.5,178.7l-0.1,0.4c-0.5,0-0.7,0.2-0.9,0.8l-2.6,8.8H338c0-0.3,0-0.6-0.1-0.8l-2.5-5.2h-0.1l-1.4,4.8
			c0,0.1-0.1,0.2-0.1,0.4c0,0.3,0.1,0.5,0.5,0.5l-0.1,0.4H330l0.1-0.4c0.5,0,0.8-0.3,0.9-0.8l2.2-7.7c0-0.1,0.1-0.2,0.1-0.3
			c0-0.2-0.2-0.4-0.5-0.4l0.1-0.4h4.4c0,0.3,0,0.5,0.2,0.9l1.9,4h0.1l1.1-3.8c0-0.1,0.1-0.3,0.1-0.4c0-0.2-0.2-0.4-0.6-0.4l0.1-0.4
			H344.5z"/>
		<path class="st1" d="M355.7,183.6l-0.1,0.4c-0.5,0-0.7,0.3-0.8,0.6l-0.7,2.4c-0.1,0.2,0,0.5,0,0.6c-1.2,0.6-2.5,1.2-5.2,1.2
			c-3,0-4.8-1.9-4.8-4.3c0-3.5,3.6-6.2,7.5-6.2c1.3,0,2.2,0.2,2.4,0.2c0.4,0,0.7-0.1,0.7-0.1l0.4,3.2l-0.5,0.1
			c-0.4-0.8-1.1-1.1-2.6-1.1c-2.5,0-4.4,1.7-4.4,3.8c0,1.3,0.8,2.2,2.1,2.2c0.6,0,1-0.1,1.2-0.1l0.5-1.8c0-0.1,0-0.2,0-0.2
			c0-0.2-0.2-0.4-0.5-0.4l0.1-0.4H355.7z"/>
		<path class="st1" d="M355.7,190.5l-0.3-0.8c0.9-0.3,1.4-0.7,1.7-1c-0.6-0.1-1.1-0.3-1.1-0.9c0-1,0.9-1.7,2-1.7
			c1,0,1.4,0.4,1.4,1.2C359.4,188.9,357.4,190.1,355.7,190.5z"/>
		<path class="st1" d="M373.1,178.7L373,179c-0.4,0-0.7,0.2-0.9,0.8l-2.2,7.6c0,0.2-0.1,0.3-0.1,0.4c0,0.3,0.1,0.4,0.5,0.4l-0.1,0.4
			h-4.7l0.1-0.4c0.5,0,0.8-0.3,0.9-0.8l2.2-7.6c0-0.1,0-0.2,0-0.3c0-0.2-0.2-0.4-0.5-0.4l0.1-0.4H373.1z"/>
		<path class="st1" d="M386.3,178.7l-0.1,0.4c-0.5,0-0.7,0.2-0.9,0.8l-2.6,8.8h-2.9c0-0.3,0-0.6-0.1-0.8l-2.5-5.2h-0.1l-1.4,4.8
			c0,0.1-0.1,0.2-0.1,0.4c0,0.3,0.1,0.5,0.5,0.5l-0.1,0.4h-4.3l0.1-0.4c0.5,0,0.8-0.3,0.9-0.8l2.2-7.7c0-0.1,0.1-0.2,0.1-0.3
			c0-0.2-0.2-0.4-0.5-0.4l0.1-0.4h4.4c0,0.3,0,0.5,0.2,0.9l1.9,4h0.1l1.1-3.8c0-0.1,0.1-0.3,0.1-0.4c0-0.2-0.2-0.4-0.6-0.4l0.1-0.4
			H386.3z"/>
		<path class="st1" d="M396.9,181.8l-0.5,0.1c-0.2-0.8-1-1.3-2.5-1.3c-2.6,0-4.5,1.6-4.5,3.8c0,1.4,1.3,2.1,2.7,2.1
			c2.3,0,2.9-0.5,3.4-1.3l0.5,0.2l-1.8,3.4c0,0-0.3-0.1-0.6-0.1c-0.3,0-1.7,0.2-2.8,0.2c-3,0-5-1.7-5-4.3c0-3.7,3.8-6.2,7.7-6.2
			c1.2,0,2,0.2,2.3,0.2c0.4,0,0.7-0.1,0.7-0.1L396.9,181.8z"/>
		<path class="st1" d="M398.4,188.8c-0.8,0-1.4-0.4-1.4-1.1c0-1,1.1-1.7,2.2-1.7c0.8,0,1.3,0.4,1.3,1.1
			C400.5,188.2,399.5,188.8,398.4,188.8z"/>
	</g>
</g>
</svg>
